HIERARCHY
ROOT Hips
{
    OFFSET 0.000000 0.000000 0.000000
    CHANNELS 6 Xposition Yposition Zposition Zrotation Xrotation Yrotation
    JOINT Spine
    {
        OFFSET -0.000000 7.856138 0.000000
        CHANNELS 3 Zrotation Xrotation Yrotation
        JOINT Spine1
        {
            OFFSET -0.000000 20.830866 0.000000
            CHANNELS 3 Zrotation Xrotation Yrotation
            JOINT Neck
            {
                OFFSET -0.000000 20.745317 1.885938
                CHANNELS 3 Zrotation Xrotation Yrotation
                JOINT Head
                {
                    OFFSET -0.000000 13.412918 -1.916131
                    CHANNELS 3 Zrotation Xrotation Yrotation
                    End Site
                    {
                        OFFSET -0.000000 23.951641 0.000000
                    }
                }
            }
            JOINT LeftShoulder
            {
                OFFSET 3.826675 19.078362 -0.073511
                CHANNELS 3 Zrotation Xrotation Yrotation
                JOINT LeftArm
                {
                    OFFSET 10.442133 0.000000 0.000000
                    CHANNELS 3 Zrotation Xrotation Yrotation
                    JOINT LeftForeArm
                    {
                        OFFSET 37.051945 0.000000 0.000000
                        CHANNELS 3 Zrotation Xrotation Yrotation
                        JOINT LeftHand
                        {
                            OFFSET 24.394852 0.000000 0.000000
                            CHANNELS 3 Zrotation Xrotation Yrotation
                            End Site
                            {
                                OFFSET 14.370985 0.000000 0.000000
                            }
                        }
                    }
                }
            }
            JOINT RightShoulder
            {
                OFFSET -3.827599 19.078362 -0.073511
                CHANNELS 3 Zrotation Xrotation Yrotation
                JOINT RightArm
                {
                    OFFSET -10.442133 0.000000 0.000000
                    CHANNELS 3 Zrotation Xrotation Yrotation
                    JOINT RightForeArm
                    {
                        OFFSET -37.051945 0.000000 0.000000
                        CHANNELS 3 Zrotation Xrotation Yrotation
                        JOINT RightHand
                        {
                            OFFSET -24.394852 0.000000 0.000000
                            CHANNELS 3 Zrotation Xrotation Yrotation
                            End Site
                            {
                                OFFSET -14.370985 0.000000 0.000000
                            }
                        }
                    }
                }
            }
        }
    }
    JOINT LeftUpLeg
    {
        OFFSET 9.580656 0.000000 0.000000
        CHANNELS 3 Zrotation Xrotation Yrotation
        JOINT LeftLeg
        {
            OFFSET -0.000000 -43.769192 0.000000
            CHANNELS 3 Zrotation Xrotation Yrotation
            JOINT LeftFoot
            {
                OFFSET -0.000000 -42.531967 0.000000
                CHANNELS 3 Zrotation Xrotation Yrotation
                JOINT LeftToeBase
                {
                    OFFSET -0.000000 -6.227426 14.370985
                    CHANNELS 3 Zrotation Xrotation Yrotation
                    End Site
                    {
                        OFFSET -0.000000 0.000000 3.832262
                    }
                }
            }
        }
    }
    JOINT RightUpLeg
    {
        OFFSET -9.580656 0.000000 0.000000
        CHANNELS 3 Zrotation Xrotation Yrotation
        JOINT RightLeg
        {
            OFFSET -0.000000 -43.769192 0.000000
            CHANNELS 3 Zrotation Xrotation Yrotation
            JOINT RightFoot
            {
                OFFSET -0.000000 -42.531967 0.000000
                CHANNELS 3 Zrotation Xrotation Yrotation
                JOINT RightToeBase
                {
                    OFFSET -0.000000 -6.227426 14.370985
                    CHANNELS 3 Zrotation Xrotation Yrotation
                    End Site
                    {
                        OFFSET -0.000000 0.000000 3.832262
                    }
                }
            }
        }
    }
}
MOTION
Frames:    4
Frame Time:    0.008333
-60.663105    93.365028    33.639900    -1.938445    -2.074738    87.028091    0.902987    -10.823484    1.612017    3.309622    9.418939    1.253679    0.832385    0.185671    -3.068770    5.789905    0.242943    -2.501925    -6.184900    13.961637    3.934087    -36.991287    57.082069    -31.254604    0.511288    -19.369083    -27.606558    8.479708    -18.064789    16.755127    2.572788    17.242785    2.405186    41.986099    55.953854    27.795561    -2.548531    -25.256195    21.777201    -9.072206    -23.954538    -11.819513    5.399272    5.106251    3.133274    -3.604111    -2.494596    7.421734    4.651866    -5.976538    10.614809    0.000000    0.000000    0.000000    -0.042852    1.080129    -2.993190    2.524752    0.623513    -9.984308    1.097663    -3.820499    4.455499    0.000000    0.000000    0.000000    
-60.677528    93.365227    33.636005    -1.958002    -2.024837    87.079384    0.892881    -10.597685    1.614918    3.182535    8.947011    1.282996    1.079541    0.155076    -2.999620    5.506931    0.598896    -2.523283    -5.941066    14.027424    3.739750    -36.464310    57.538387    -31.468706    0.150062    -19.718613    -27.881203    8.125931    -18.567610    16.506626    2.619668    17.222187    2.478265    41.542591    56.465103    27.907078    -2.759383    -25.137770    21.260344    -8.674421    -23.869774    -11.500620    5.357744    5.053653    3.093994    -3.608631    -2.477424    7.387552    4.596813    -5.952022    10.632272    0.000000    0.000000    0.000000    -0.083749    1.067431    -3.066969    2.506889    0.596745    -10.009896    1.103780    -3.838821    4.508809    0.000000    0.000000    0.000000    
-60.649551    93.377960    33.641197    -1.923330    -2.021626    87.231178    0.939854    -10.471094    1.574644    2.979592    8.681036    1.262219    1.318723    0.248023    -2.992101    5.392797    0.688200    -2.569495    -5.614655    14.104028    3.550112    -36.040997    57.731613    -31.707733    -0.320787    -20.025780    -28.025675    7.190534    -19.140518    16.114498    2.748247    17.152327    2.515716    41.322819    56.424809    27.759798    -2.398137    -24.722189    21.059446    -8.147885    -23.585846    -11.186088    5.379138    5.083451    2.879620    -3.626812    -2.495020    7.426509    4.588501    -5.898183    10.650361    0.000000    0.000000    0.000000    -0.062113    1.189777    -3.150553    2.476403    0.485320    -10.100159    1.150086    -3.761390    4.519314    0.000000    0.000000    0.000000    
-60.662781    93.391617    33.629959    -1.936402    -1.955739    87.234451    0.974816    -10.312175    1.586836    2.784496    8.357331    1.295383    1.346812    0.539003    -3.046301    5.542393    0.463132    -2.595380    -5.429061    14.159163    3.412142    -35.810196    57.768173    -31.710814    -0.717376    -20.405294    -28.178684    5.872912    -19.811064    15.737947    2.815582    17.082943    2.609432    41.107529    56.746922    27.697453    -2.512033    -24.662867    20.700481    -7.497693    -23.587845    -10.936291    5.301614    5.061055    2.741269    -3.611704    -2.513494    7.554245    4.481579    -5.818055    10.663239    0.000000    0.000000    0.000000    -0.108169    1.194820    -3.156273    2.431133    0.418956    -10.096461    1.158323    -3.705774    4.511002    0.000000    0.000000    0.000000    
